<svg xmlns="http://www.w3.org/2000/svg" width="220" height="220"><path style="stroke:none;fill-rule:nonzero;fill:#0066da;fill-opacity:1" d="m16.633 202.246 9.703 18.809a24.456 24.456 0 0 0 8.316 9.336l34.649-67.32H0c.004 4.464 1.043 8.855 3.023 12.73Zm0 0"/><path style="stroke:none;fill-rule:nonzero;fill:#00ac47;fill-opacity:1" d="m110 83.867-34.652-67.32a24.479 24.479 0 0 0-8.313 9.336L3.023 150.34C1.047 154.215.003 158.605 0 163.07h69.3Zm0 0"/><path style="stroke:none;fill-rule:nonzero;fill:#ea4335;fill-opacity:1" d="M185.348 230.39a24.456 24.456 0 0 0 8.316-9.335l4.035-7.778 19.278-37.476c1.98-3.875 3.02-8.266 3.023-12.73h-69.305l14.746 32.527Zm0 0"/><path style="stroke:none;fill-rule:nonzero;fill:#00832d;fill-opacity:1" d="m110 83.867 34.652-67.32c-3.402-2.262-7.308-3.395-11.343-3.395H86.69c-4.035 0-7.941 1.274-11.343 3.395Zm0 0"/><path style="stroke:none;fill-rule:nonzero;fill:#2684fc;fill-opacity:1" d="M150.7 163.07H69.3l-34.648 67.32c3.399 2.262 7.305 3.395 11.34 3.395h128.016c4.035 0 7.941-1.273 11.34-3.394Zm0 0"/><path style="stroke:none;fill-rule:nonzero;fill:#ffba00;fill-opacity:1" d="m184.973 88.113-32.008-62.23a24.479 24.479 0 0 0-8.313-9.336L110 83.87l40.7 79.2h69.175c-.004-4.466-1.043-8.852-3.023-12.727Zm0 0"/></svg>