<svg xmlns="http://www.w3.org/2000/svg" width="220" height="220" viewBox="0 0 48 48"><path fill="#00bcd4" d="M9 24s-.258-.961-.258-2.289c0-1.593.331-3.964 1.258-5.601-5.64.737-10 5.548-10 11.39C0 33.851 5.149 39 11.5 39H40V24H9z"/><path fill="#00bcd4" d="M24 9a15 15 0 1 0 0 30 15 15 0 1 0 0-30Z"/><path fill="#fff" d="M24 36c-6.617 0-12-5.383-12-12s5.383-12 12-12 12 5.383 12 12-5.383 12-12 12zm0-22c-5.514 0-10 4.486-10 10s4.486 10 10 10 10-4.486 10-10-4.486-10-10-10z"/><path fill="#fff" d="M20.5 31a1.5 1.5 0 0 1-1.5-1.5v-10a1.5 1.5 0 0 1 1.5-1.5h5c2.481 0 4.5 2.019 4.5 4.5S27.981 27 25.5 27H22v2.5a1.5 1.5 0 0 1-1.5 1.5zm1.5-7h3.5c.827 0 1.5-.673 1.5-1.5s-.673-1.5-1.5-1.5H22v3z"/><path fill="#00bcd4" d="M45 22.5a6.5 6.5 0 0 0-6.5-6.5c-.211 0-.294-.02-.5 0 .028.053-.002-.003 0 0 .929 1.637 1.258 4.117 1.258 5.711C39.258 23.039 39 24 39 24v4.975a6.497 6.497 0 0 0 6-6.475z"/><path fill="#00bcd4" d="M45.551 25.25c-.886 1.915-3.007 2.75-3.589 2.75H39v11c.317-.023.646 0 1 0a8 8 0 0 0 8-8 7.96 7.96 0 0 0-2.449-5.75z"/></svg>