<svg width="144" height="144" xmlns="http://www.w3.org/2000/svg"><defs><linearGradient x1="62.187%" y1="-35.476%" x2="32.473%" y2="118.17%" id="a"><stop stop-color="#1BCFFF" offset="0%"/><stop stop-color="#0065EA" offset="100%"/></linearGradient><linearGradient x1="71.096%" y1="-13.145%" x2="33.33%" y2="89.247%" id="b"><stop stop-color="#35C6FF" offset="0%"/><stop stop-color="#006BF8" offset="100%"/></linearGradient><linearGradient x1="83.008%" y1="-55.877%" x2="39.009%" y2="100%" id="c"><stop stop-color="#54E7FF" offset="0%"/><stop stop-color="#006BF8" offset="100%"/></linearGradient></defs><g fill="none" fill-rule="evenodd"><rect fill="#FFF" width="144" height="144" rx="24"/><path d="M29.276 23.825c8.67 0 16.461 3.77 21.822 9.759a4.268 4.268 0 0 0-1.052.893l-17.18 20.157a4.305 4.305 0 0 0 3.27 7.098l6.443.008v13.284l-.03.565c-.11 1.46-.473 2.556-1.09 3.288-.55.652-1.25 1.224-2.1 1.717a29.215 29.215 0 0 1-10.083 1.783C13.107 82.377 0 69.269 0 53.1c0-16.17 13.107-29.276 29.276-29.276Z" fill="url(#a)" transform="translate(18.563 29.953)"/><path d="M53.49 0c16.643 0 30.136 13.493 30.136 30.137 0 9.367-4.273 17.736-10.977 23.264L56.606 34.485a4.305 4.305 0 0 0-6.56-.008L34.088 53.2c-6.565-5.528-10.736-13.809-10.736-23.063C23.352 13.493 36.845 0 53.489 0Z" fill="url(#b)" transform="translate(18.563 29.953)"/><path d="M76.717 22.514c16.645 0 30.137 13.492 30.137 30.137 0 16.644-13.492 30.137-30.137 30.137-2.858 0-5.623-.398-8.243-1.141-1.587-.662-2.7-1.447-3.339-2.355-.707-1.005-1.05-2.221-1.03-3.648V61.78l6.358.013a4.305 4.305 0 0 0 3.29-7.09L56.607 34.485a4.305 4.305 0 0 0-2.738-1.487c5.526-6.419 13.713-10.484 22.85-10.484Z" fill="url(#c)" transform="translate(18.563 29.953)"/></g></svg>