<svg width="220" height="220" xmlns="http://www.w3.org/2000/svg"><defs><linearGradient id="a" gradientUnits="userSpaceOnUse" x1=".622" y1="-.355" x2=".325" y2="1.182" gradientTransform="matrix(78.0664 0 0 89.45703 28.36 82.16)"><stop offset="0" style="stop-color:#1bcfff;stop-opacity:1"/><stop offset="1" style="stop-color:#0065ea;stop-opacity:1"/></linearGradient><linearGradient id="b" gradientUnits="userSpaceOnUse" x1=".711" y1="-.131" x2=".333" y2=".892" gradientTransform="matrix(92.08594 0 0 81.58594 64.035 45.762)"><stop offset="0" style="stop-color:#35c6ff;stop-opacity:1"/><stop offset="1" style="stop-color:#006bf8;stop-opacity:1"/></linearGradient><linearGradient id="c" gradientUnits="userSpaceOnUse" x1=".83" y1="-.559" x2=".39" y2="1" gradientTransform="matrix(80.94922 0 0 92.08594 110.66 80.156)"><stop offset="0" style="stop-color:#54e7ff;stop-opacity:1"/><stop offset="1" style="stop-color:#006bf8;stop-opacity:1"/></linearGradient></defs><path style="stroke:none;fill-rule:evenodd;fill:url(#a)" d="M73.086 82.16c13.246 0 25.148 5.762 33.34 14.91a6.47 6.47 0 0 0-1.606 1.364L78.57 129.23a6.589 6.589 0 0 0-.968 7.02 6.581 6.581 0 0 0 5.964 3.824l9.844.012v20.297l-.043.863c-.168 2.23-.722 3.902-1.668 5.024-.84.996-1.91 1.867-3.207 2.62a44.66 44.66 0 0 1-15.406 2.727c-24.703 0-44.727-20.027-44.727-44.73 0-24.703 20.024-44.727 44.727-44.727Zm0 0"/><path style="stroke:none;fill-rule:evenodd;fill:url(#b)" d="M110.082 45.762c25.426 0 46.04 20.613 46.04 46.043 0 14.308-6.528 27.097-16.77 35.543L114.84 98.445a6.572 6.572 0 0 0-5.008-2.32 6.561 6.561 0 0 0-5.012 2.309l-24.382 28.605c-10.028-8.445-16.403-21.098-16.403-35.234 0-25.43 20.617-46.043 46.043-46.043Zm0 0"/><path style="stroke:none;fill-rule:evenodd;fill:url(#c)" d="M145.566 80.156c25.43 0 46.043 20.614 46.043 46.043 0 25.43-20.613 46.043-46.043 46.043-4.367 0-8.59-.605-12.593-1.742-2.426-1.012-4.125-2.21-5.102-3.598-1.078-1.535-1.601-3.394-1.574-5.574v-21.18l9.715.02a6.577 6.577 0 0 0 5.027-10.832l-26.195-30.89a6.585 6.585 0 0 0-4.184-2.27c8.442-9.809 20.95-16.02 34.91-16.02Zm0 0"/></svg>