<?xml version="1.0" encoding="UTF-8"?> <svg xmlns="http://www.w3.org/2000/svg" xmlns:xlink="http://www.w3.org/1999/xlink" width="220px" height="220px" viewBox="0 0 220 220" version="1.1"><defs><linearGradient id="linear0" gradientUnits="userSpaceOnUse" x1="0.62187" y1="-0.35476" x2="0.32473" y2="1.1817" gradientTransform="matrix(78.066406,0,0,89.457031,28.359375,82.160156)"><stop offset="0" style="stop-color:rgb(10.588235%,81.176471%,100%);stop-opacity:1"/><stop offset="1" style="stop-color:rgb(0%,39.607843%,91.764706%);stop-opacity:1"/></linearGradient><linearGradient id="linear1" gradientUnits="userSpaceOnUse" x1="0.71096" y1="-0.13145" x2="0.3333" y2="0.89247" gradientTransform="matrix(92.085937,0,0,81.585937,64.035156,45.761719)"><stop offset="0" style="stop-color:rgb(20.784314%,77.647059%,100%);stop-opacity:1"/><stop offset="1" style="stop-color:rgb(0%,41.960784%,97.254902%);stop-opacity:1"/></linearGradient><linearGradient id="linear2" gradientUnits="userSpaceOnUse" x1="0.83008" y1="-0.55877" x2="0.39009" y2="1" gradientTransform="matrix(80.949219,0,0,92.085937,110.660156,80.15625)"><stop offset="0" style="stop-color:rgb(32.941176%,90.588235%,100%);stop-opacity:1"/><stop offset="1" style="stop-color:rgb(0%,41.960784%,97.254902%);stop-opacity:1"/></linearGradient></defs><g id="surface1"><path style="stroke:none;fill-rule:evenodd;fill:rgb(100%,100%,100%);fill-opacity:1" d="M 36.667969 0 L 183.332031 0 C 203.582031 0 220 16.417969 220 36.667969 L 220 183.332031 C 220 203.582031 203.582031 220 183.332031 220 L 36.667969 220 C 16.417969 220 0 203.582031 0 183.332031 L 0 36.667969 C 0 16.417969 16.417969 0 36.667969 0 Z M 36.667969 0 "/><path style="stroke:none;fill-rule:evenodd;fill:url(#linear0)" d="M 73.085938 82.160156 C 86.332031 82.160156 98.234375 87.921875 106.425781 97.070312 C 105.820312 97.433594 105.277344 97.894531 104.820312 98.433594 L 78.570312 129.230469 C 76.910156 131.179688 76.53125 133.921875 77.601562 136.25 C 78.675781 138.578125 81.003906 140.070312 83.566406 140.074219 L 93.410156 140.085938 L 93.410156 160.382812 L 93.367188 161.246094 C 93.199219 163.476562 92.644531 165.148438 91.699219 166.269531 C 90.859375 167.265625 89.789062 168.136719 88.492188 168.890625 C 83.558594 170.699219 78.34375 171.621094 73.085938 171.617188 C 48.382812 171.617188 28.359375 151.589844 28.359375 126.886719 C 28.359375 102.183594 48.382812 82.160156 73.085938 82.160156 Z M 73.085938 82.160156 "/><path style="stroke:none;fill-rule:evenodd;fill:url(#linear1)" d="M 110.082031 45.761719 C 135.507812 45.761719 156.121094 66.375 156.121094 91.804688 C 156.121094 106.113281 149.59375 118.902344 139.351562 127.347656 L 114.839844 98.445312 C 113.59375 96.976562 111.761719 96.125 109.832031 96.125 C 107.902344 96.121094 106.070312 96.964844 104.820312 98.433594 L 80.4375 127.039062 C 70.410156 118.59375 64.035156 105.941406 64.035156 91.804688 C 64.035156 66.375 84.652344 45.761719 110.078125 45.761719 Z M 110.082031 45.761719 "/><path style="stroke:none;fill-rule:evenodd;fill:url(#linear2)" d="M 145.566406 80.15625 C 170.996094 80.15625 191.609375 100.769531 191.609375 126.199219 C 191.609375 151.628906 170.996094 172.242188 145.566406 172.242188 C 141.199219 172.242188 136.976562 171.636719 132.972656 170.5 C 130.546875 169.488281 128.847656 168.289062 127.871094 166.902344 C 126.792969 165.367188 126.269531 163.507812 126.296875 161.328125 L 126.296875 140.148438 L 136.011719 140.167969 C 138.578125 140.171875 140.910156 138.683594 141.988281 136.359375 C 143.070312 134.03125 142.699219 131.292969 141.039062 129.335938 L 114.84375 98.445312 C 113.78125 97.195312 112.289062 96.382812 110.660156 96.175781 C 119.101562 86.367188 131.609375 80.15625 145.570312 80.15625 Z M 145.566406 80.15625 "/></g></svg>
