<svg xmlns="http://www.w3.org/2000/svg" width="220" height="220"><defs><linearGradient id="a" gradientUnits="userSpaceOnUse" x1=".622" y1="-.355" x2=".325" y2="1.182" gradientTransform="matrix(105.3657 0 0 156.19481 38.277 143.454)"><stop offset="0" style="stop-color:#1bcfff;stop-opacity:1"/><stop offset="1" style="stop-color:#0065ea;stop-opacity:1"/></linearGradient><linearGradient id="b" gradientUnits="userSpaceOnUse" x1=".711" y1="-.131" x2=".333" y2=".892" gradientTransform="matrix(124.28777 0 0 142.45164 86.428 79.902)"><stop offset="0" style="stop-color:#35c6ff;stop-opacity:1"/><stop offset="1" style="stop-color:#006bf8;stop-opacity:1"/></linearGradient><linearGradient id="c" gradientUnits="userSpaceOnUse" x1=".83" y1="-.559" x2=".39" y2="1" gradientTransform="matrix(109.25662 0 0 160.78498 149.357 139.955)"><stop offset="0" style="stop-color:#54e7ff;stop-opacity:1"/><stop offset="1" style="stop-color:#006bf8;stop-opacity:1"/></linearGradient></defs><path style="stroke:none;fill-rule:evenodd;fill:url(#a)" d="M98.645 143.453c17.878 0 33.94 10.063 44.996 26.035a9.772 9.772 0 0 0-2.164 2.38l-35.43 53.773c-2.242 3.41-2.754 8.191-1.309 12.257 1.45 4.063 4.59 6.668 8.051 6.676l13.285.02v35.441l-.058 1.504c-.227 3.895-.973 6.816-2.25 8.774-1.133 1.738-2.579 3.261-4.329 4.574-6.66 3.156-13.699 4.77-20.792 4.761-33.344 0-60.368-34.968-60.368-78.101 0-43.129 27.024-78.094 60.368-78.094Zm0 0"/><path style="stroke:none;fill-rule:evenodd;fill:url(#b)" d="M148.578 79.902c34.317 0 62.14 35.993 62.14 80.391 0 24.984-8.812 47.312-22.636 62.062L155 171.887c-1.684-2.57-4.156-4.051-6.762-4.051-2.601-.008-5.078 1.469-6.761 4.031l-32.91 49.946c-13.536-14.743-22.141-36.836-22.141-61.52 0-44.398 27.828-80.39 62.144-80.39Zm0 0"/><path style="stroke:none;fill-rule:evenodd;fill:url(#c)" d="M196.469 139.953c34.324 0 62.144 35.996 62.144 80.395 0 44.402-27.82 80.39-62.144 80.39a49.09 49.09 0 0 1-16.996-3.039c-3.274-1.77-5.567-3.86-6.887-6.281-1.453-2.684-2.16-5.93-2.125-9.734v-36.98l13.113.034c3.461.008 6.613-2.586 8.067-6.652 1.46-4.059.96-8.848-1.282-12.262l-35.355-53.933c-1.434-2.188-3.45-3.602-5.649-3.965 11.395-17.125 28.278-27.973 47.122-27.973Zm0 0"/></svg>